:SAMPLES-PER-SECOND 30
:FULLY-SPECIFIED
:DEGREES
1
root  20.3151 39.9983 9.29194 -169.064 -82.3486 165.08
RightUpLeg  5.56292 -9.07456 -6.71953
RightLeg  2.43193 1.77432 -0.589214
RightFoot  -3.72379 -0.268615 3.7682
RightToes  7.56698e-010 0 -3.6325e-017
Spine  0.466047 -0.457144 2.78583
Spine1  9.81367 0.0838311 -2.08575
HEad  -17.2481 -7.56299 -2.28832
LeftShoulder1  0.0291539 3.42897 -32.8503
LeftArm  3.81761 8.06446 -38.5376
LeftForeArm  22.2843 -15.6142 -6.80807
LeftHand  -0.149299 8.61904 -3.45905
RightShoulder  -0.814653 -5.67849 30.814
RightArm  17.8634 4.92205 47.8659
RightForeArm  18.7831 7.24266 8.76623
RightHand  -0.0763667 1.14102 -1.47788
LeftUpLeg  5.82959 6.46688 2.80671
LeftLeg  0.0923909 2.35653 1.06605
LeftFoot  -1.11294 0.170424 -1.79072
LeftToes  -2.88401e-009 5.30678e-011 -1.08654e-010
2
root  20.2836 39.996 9.2646 -169.012 -82.3189 164.891
RightUpLeg  5.74261 -9.13761 -6.78425
RightLeg  2.48632 1.89958 -0.545126
RightFoot  -3.82441 -0.268512 3.7666
RightToes  7.56698e-010 0 -3.6325e-017
Spine  0.243398 -0.387339 2.94288
Spine1  10.0489 0.190986 -2.20774
HEad  -17.2499 -7.42622 -2.15331
LeftShoulder1  0.0548895 3.3622 -32.6285
LeftArm  1.92921 8.48545 -38.4475
LeftForeArm  24.0329 -14.3635 -7.18152
LeftHand  -0.173416 9.14844 -3.62056
RightShoulder  -0.82689 -5.70318 30.9513
RightArm  18.0506 5.11596 47.7809
RightForeArm  18.4344 7.49491 8.77451
RightHand  -0.0621446 1.64021 -1.17673
LeftUpLeg  6.08862 6.47515 2.82654
LeftLeg  -0.0108385 2.37204 1.0856
LeftFoot  -1.10056 0.172485 -1.82277
LeftToes  -2.88401e-009 5.30678e-011 -1.08654e-010
3
root  20.2478 39.9924 9.22721 -168.876 -82.4504 164.776
RightUpLeg  5.77049 -9.10162 -6.70722
RightLeg  2.58074 1.74465 -0.555253
RightFoot  -3.95295 -0.266451 3.73462
RightToes  7.56698e-010 0 -3.6325e-017
Spine  -0.14978 -0.35794 3.09501
Spine1  10.1798 0.212985 -2.19647
HEad  -17.0101 -7.07584 -1.95348
LeftShoulder1  0.0548992 3.36167 -32.6352
LeftArm  0.219554 8.83555 -38.0632
LeftForeArm  25.6381 -12.6117 -7.75361
LeftHand  -0.181579 9.38209 -3.57662
RightShoulder  -0.851107 -5.76258 31.0445
RightArm  17.7457 5.32442 47.7924
RightForeArm  18.6732 7.53004 8.65683
RightHand  -0.058129 1.97979 -1.08394
LeftUpLeg  6.10642 6.4866 2.89652
LeftLeg  -0.000808569 2.20985 1.09945
LeftFoot  -1.11768 0.170399 -1.79034
LeftToes  -2.88401e-009 5.30678e-011 -1.08654e-010
4
root  20.2226 39.9922 9.20181 -168.306 -82.615 164.157
RightUpLeg  5.88081 -9.13389 -6.73998
RightLeg  2.64292 1.5959 -0.536872
RightFoot  -4.05001 -0.262311 3.68157
RightToes  7.56698e-010 0 -3.6325e-017
Spine  -0.377266 -0.366303 3.05526
Spine1  10.2224 0.128015 -1.93573
HEad  -16.0018 -6.94869 -2.77164
LeftShoulder1  -0.00149769 3.50786 -33.223
LeftArm  -0.859651 9.11133 -37.2909
LeftForeArm  27.31 -11.4858 -8.00926
LeftHand  -0.223671 9.67711 -4.40632
RightShoulder  -0.796787 -5.64425 30.5738
RightArm  17.5569 5.34822 48.1916
RightForeArm  18.7584 7.63132 8.57828
RightHand  -0.0743876 1.77403 -1.35678
LeftUpLeg  6.18493 6.50567 2.91956
LeftLeg  -0.0181285 1.95962 1.08363
LeftFoot  -1.0957 0.170055 -1.78499
LeftToes  -2.88401e-009 5.30678e-011 -1.08654e-010
5
root  20.2041 39.9874 9.18205 -167.813 -82.8242 163.568
RightUpLeg  6.00278 -9.16914 -6.76838
RightLeg  2.77167 1.44044 -0.522329
RightFoot  -4.17018 -0.256912 3.64396
RightToes  7.56698e-010 0 -3.6325e-017
Spine  -0.412791 -0.382164 3.13265
Spine1  10.1529 0.119453 -1.95561
HEad  -15.6638 -6.65869 -2.90514
LeftShoulder1  0.00562664 3.48944 -33.0149
LeftArm  -1.11221 10.0861 -36.9886
LeftForeArm  27.6795 -11.598 -7.84727
LeftHand  -0.225547 9.40844 -4.76869
RightShoulder  -0.755834 -5.55226 30.2306
RightArm  17.9698 5.13737 48.2844
RightForeArm  18.2137 8.52657 8.44061
RightHand  -0.0402516 0.894852 -0.869704
LeftUpLeg  6.27575 6.50873 2.93923
LeftLeg  -0.00708523 1.75559 1.09683
LeftFoot  -1.1047 0.167609 -1.74697
LeftToes  -2.88401e-009 5.30678e-011 -1.08654e-010
6
root  20.192 39.9815 9.1579 -167.518 -83.0476 163.166
RightUpLeg  6.19041 -9.13509 -6.73387
RightLeg  2.76204 1.19839 -0.546433
RightFoot  -4.25701 -0.261895 3.7593
RightToes  7.56698e-010 0 -3.6325e-017
Spine  -0.213237 -0.408107 3.36328
Spine1  9.86696 0.161771 -2.24079
HEad  -15.5197 -6.6901 -2.70185
LeftShoulder1  0.000565609 3.5023 -32.5739
LeftArm  -0.898484 11.5673 -36.6437
LeftForeArm  27.5724 -12.9733 -7.19634
LeftHand  -0.276122 9.31744 -6.30967
RightShoulder  -0.747084 -5.53647 30.0835
RightArm  17.9211 4.33589 47.9502
RightForeArm  17.2784 10.0783 7.864
RightHand  -0.0197202 2.54419 -0.480325
LeftUpLeg  6.34058 6.59682 3.04663
LeftLeg  0.085537 1.40533 1.05933
LeftFoot  -1.19333 0.166411 -1.72834
LeftToes  -2.88401e-009 5.30678e-011 -1.08654e-010
7
root  20.1866 39.9794 9.13092 -166.969 -83.2927 162.679
RightUpLeg  6.15026 -9.09684 -6.64879
RightLeg  2.82227 0.873995 -0.559402
RightFoot  -4.29844 -0.256039 3.69328
RightToes  7.56698e-010 0 -3.6325e-017
Spine  -0.266226 -0.366096 3.36603
Spine1  9.76273 0.201387 -2.22322
HEad  -15.3664 -6.72794 -2.70236
LeftShoulder1  -0.0417864 3.61353 -32.0913
LeftArm  -2.3512 13.0663 -36.3409
LeftForeArm  28.384 -14.4615 -6.12058
LeftHand  -0.29884 9.21166 -7.1791
RightShoulder  -0.758868 -5.56926 30.0767
RightArm  17.4254 3.24539 46.8576
RightForeArm  17.6368 12.8179 6.60715
RightHand  0.0119489 2.28666 -0.0086359
LeftUpLeg  6.22966 6.65053 3.14316
LeftLeg  0.128453 1.09809 1.00348
LeftFoot  -1.22183 0.173662 -1.84108
LeftToes  -2.88401e-009 5.30678e-011 -1.08654e-010
8
root  20.18 39.978 9.0944 -166.634 -83.6341 162.465
RightUpLeg  6.09248 -8.96568 -6.43381
RightLeg  2.82902 0.373981 -0.616133
RightFoot  -4.28548 -0.247665 3.59181
RightToes  7.56698e-010 0 -3.6325e-017
Spine  -0.264341 -0.240997 3.09362
Spine1  9.42307 0.171165 -1.61565
HEad  -15.1324 -6.94397 -2.95722
LeftShoulder1  -0.132971 3.85948 -31.2789
LeftArm  -5.18238 14.2429 -35.8534
LeftForeArm  29.3277 -15.1243 -5.16484
LeftHand  -0.309748 8.79887 -8.38227
RightShoulder  -0.7105 -5.48404 29.2104
RightArm  15.5659 2.10288 45.3608
RightForeArm  18.5035 14.8095 5.35808
RightHand  -0.00135079 1.99931 -0.149862
LeftUpLeg  5.9962 6.74549 3.3192
LeftLeg  0.279334 0.648408 0.942328
LeftFoot  -1.28319 0.173192 -1.83377
LeftToes  -2.88401e-009 5.30678e-011 -1.08654e-010
9
root  20.1698 39.9754 9.07106 -165.506 -83.9833 161.184
RightUpLeg  6.3095 -9.05391 -6.50842
RightLeg  2.92702 0.152188 -0.564363
RightFoot  -4.39161 -0.241802 3.53045
RightToes  7.56698e-010 0 -3.6325e-017
Spine  -0.0621459 -0.0924948 2.76031
Spine1  9.09333 0.198983 -1.06498
HEad  -14.759 -7.30229 -3.13423
LeftShoulder1  -0.172648 3.98351 -29.8787
LeftArm  -8.80929 14.2838 -34.8377
LeftForeArm  28.6871 -13.5166 -4.7315
LeftHand  -0.363702 9.20836 -9.02787
RightShoulder  -0.618629 -5.28205 28.0191
RightArm  13.0627 1.83113 42.8922
RightForeArm  18.8021 14.7943 4.86714
RightHand  -0.134792 2.87286 -2.13039
LeftUpLeg  6.11166 6.77667 3.36849
LeftLeg  0.292028 0.244167 0.916248
LeftFoot  -1.28425 0.173062 -1.83174
LeftToes  -2.88401e-009 5.30678e-011 -1.08654e-010
10
root  20.1733 39.9726 9.05309 -164.388 -84.3466 160.183
RightUpLeg  6.24591 -9.04404 -6.44444
RightLeg  2.9442 -0.272306 -0.539199
RightFoot  -4.43589 -0.238991 3.51482
RightToes  7.56698e-010 0 -3.6325e-017
Spine  -0.122725 -0.00548569 2.83585
Spine1  8.62247 0.272666 -1.02982
HEad  -13.4683 -7.15605 -3.5914
LeftShoulder1  -0.142717 3.92608 -27.4546
LeftArm  -11.4518 13.8703 -33.6521
LeftForeArm  28.0469 -10.6545 -4.21166
LeftHand  -0.349479 9.06301 -8.96189
RightShoulder  -0.447619 -4.86977 25.8922
RightArm  8.99763 1.99893 40.2085
RightForeArm  19.652 12.7108 4.48632
RightHand  -0.197965 3.21196 -2.91696
LeftUpLeg  5.86426 6.78308 3.41045
LeftLeg  0.406846 -0.147015 0.899225
LeftFoot  -1.27619 0.167876 -1.75111
LeftToes  -2.88401e-009 5.30678e-011 -1.08654e-010
11
root  20.1727 39.9654 9.03466 -162.51 -84.7613 158.207
RightUpLeg  6.41105 -9.10691 -6.50476
RightLeg  2.99819 -0.650868 -0.496004
RightFoot  -4.58455 -0.239366 3.54427
RightToes  7.56698e-010 0 -3.6325e-017
Spine  0.214489 0.107564 2.85012
Spine1  7.78817 0.406631 -1.09626
HEad  -12.5102 -7.25643 -3.69886
LeftShoulder1  -0.0345427 3.61537 -24.4361
LeftArm  -12.87 13.4402 -32.0579
LeftForeArm  26.5992 -7.8097 -3.34315
LeftHand  -0.324457 8.8834 -8.65916
RightShoulder  -0.312253 -4.51166 23.8266
RightArm  5.99876 2.17565 36.2523
RightForeArm  18.8047 10.1573 3.88241
RightHand  -0.189154 3.5404 -2.71809
LeftUpLeg  5.82291 6.7841 3.41919
LeftLeg  0.549177 -0.617373 0.899179
LeftFoot  -1.31347 0.166412 -1.72836
LeftToes  -2.88401e-009 5.30678e-011 -1.08654e-010
12
root  20.1827 39.9605 9.0039 -159.527 -85.412 155.213
RightUpLeg  6.48933 -9.16828 -6.48494
RightLeg  3.11798 -1.27126 -0.425322
RightFoot  -4.69835 -0.235516 3.5013
RightToes  7.56698e-010 0 -3.6325e-017
Spine  0.385384 0.0803631 2.80502
Spine1  7.14195 0.372234 -1.04304
HEad  -11.8756 -7.23217 -3.65301
LeftShoulder1  0.0751195 3.24389 -22.2519
LeftArm  -13.4524 12.7541 -28.9196
LeftForeArm  25.6039 -6.21962 -2.65816
LeftHand  -0.318425 8.84646 -8.57616
RightShoulder  -0.21422 -4.24836 21.4534
RightArm  2.9818 2.28912 32.1674
RightForeArm  16.9845 7.49594 2.75536
RightHand  -0.112728 2.47691 -1.80443
LeftUpLeg  5.6295 6.83138 3.52473
LeftLeg  0.706002 -1.36728 0.835411
LeftFoot  -1.33774 0.166705 -1.73291
LeftToes  -2.88401e-009 5.30678e-011 -1.08654e-010
